<?xml version="1.0" encoding="utf-8"?>
<!-- Generator: Adobe Illustrator 25.2.3, SVG Export Plug-In . SVG Version: 6.00 Build 0)  -->
<svg version="1.1" id="Capa_1" xmlns="http://www.w3.org/2000/svg" xmlns:xlink="http://www.w3.org/1999/xlink" x="0px" y="0px"
	 width="512px" height="512px" viewBox="0 0 512 512" enable-background="new 0 0 512 512" xml:space="preserve">
<path fill="#0D4FA6" stroke="#0D4FA6" stroke-miterlimit="10" d="M393.8,0c-45.9,0-83,37.1-83,83s37.1,83,83,83s83-37.1,83-83
	S439.9,0,393.8,0z M393.8,147.3c-35.7,0-64.6-28.9-64.6-64.6s28.9-64.6,64.6-64.6s64.6,28.9,64.6,64.6
	C458.4,118.3,429.5,147.3,393.8,147.3z"/>
<path fill="#0D4FA6" stroke="#0D4FA6" stroke-miterlimit="10" d="M118.5,0c-45.9,0-83,37.1-83,83s37.1,83,83,83s83-37.1,83-83
	S164.5,0,118.5,0z M118.4,147.3c-35.7,0-64.6-28.9-64.6-64.6s28.9-64.6,64.6-64.6S183,47,183,82.7
	C183,118.3,154.1,147.3,118.4,147.3z"/>
<path fill="#0D4FA6" stroke="#0D4FA6" stroke-miterlimit="10" d="M313.2,232.9c18.6-34.9,47.8-57.3,80.6-57.3
	c54.4,0,98.8,61.7,101.5,139.2H512C509.5,223.7,457.8,151,393.7,151c-39,0-73.4,27-95,68.6"/>
<path fill="#0D4FA6" stroke="#0D4FA6" stroke-miterlimit="10" d="M218,229.3c-21.1-47.1-57.7-78.2-99.6-78.2
	C54.5,151.1,2.6,223.7,0,315h17.1c2.7-77.5,47.1-139.2,101.5-139.2c35.9-0.1,67.4,26.7,85.5,67.3C208.1,237.8,212.7,233.2,218,229.3
	z"/>
<path fill="#079DD9" stroke="#079DD9" stroke-miterlimit="10" d="M155,512c2.7-77.5,47.1-139.2,101.5-139.2S355.3,434.5,358,512
	h16.7c-2.6-91.2-54.3-163.9-118.4-163.9c-63.9,0-115.8,72.6-118.4,163.9H155z"/>
<path fill="#079DD9" stroke="#079DD9" stroke-miterlimit="10" d="M256.5,199c-45.9,0-83,37.1-83,83s37.1,83,83,83s83-37.1,83-83
	S302.5,199,256.5,199z M256.4,346.3c-35.7,0-64.6-28.9-64.6-64.6s28.9-64.6,64.6-64.6S321,246,321,281.7
	C321,317.3,292.1,346.3,256.4,346.3z"/>
</svg>
