<svg width="100" height="100" viewBox="0 0 100 100" fill="none" xmlns="http://www.w3.org/2000/svg"><circle cx="50" cy="50" r="50" fill="#E5F1FC"></circle><mask id="mask0_1406_121274" style="mask-type:alpha" maskUnits="userSpaceOnUse" x="0" y="0" width="100" height="100"><circle cx="50" cy="50" r="50" fill="#E5F1FC"></circle></mask><g mask="url(https://to-do.live.com/tasks/myday#mask0_1406_121274)"><mask id="mask1_1406_121274" style="mask-type:alpha" maskUnits="userSpaceOnUse" x="-24" y="0" width="153" height="100"><path d="M-23.6748 12C-23.6748 5.37258 -18.3022 0 -11.6748 0H116.219C122.847 0 128.219 5.37258 128.219 12V100H-23.6748V12Z" fill="#E5F1FC"></path></mask><g mask="url(https://to-do.live.com/tasks/myday#mask1_1406_121274)"><ellipse rx="50.5483" ry="50.6759" transform="matrix(0.0398161 0.999207 -0.999211 0.0397156 -2.35179 -4.47917)" stroke="#B7D7F6" stroke-width="0.5" stroke-linecap="round" stroke-linejoin="round"></ellipse><ellipse rx="88.8427" ry="89.0669" transform="matrix(0.0398161 0.999207 -0.999211 0.0397156 -10.6243 -9.42288)" stroke="#77B3EE" stroke-width="0.5" stroke-linecap="round" stroke-linejoin="round"></ellipse><ellipse rx="47.1097" ry="47.2286" transform="matrix(0.0398161 0.999207 -0.999211 0.0397156 99.0672 102.948)" stroke="#B7D7F6" stroke-width="0.5" stroke-linecap="round" stroke-linejoin="round"></ellipse><ellipse rx="88.8427" ry="89.0669" transform="matrix(0.0398161 0.999207 -0.999211 0.0397156 111.2 117.31)" stroke="#77B3EE" stroke-width="0.5" stroke-linecap="round" stroke-linejoin="round"></ellipse><path d="M67.6161 63.2604L43.2931 68.9793C43.0729 69.0271 42.8427 68.9923 42.6466 68.8816C42.4505 68.7709 42.3022 68.5921 42.2299 68.3793L33.0252 39.6355C32.9931 39.5406 32.9815 39.44 32.991 39.3402C33.0006 39.2405 33.0311 39.1439 33.0806 39.0568C33.1301 38.9696 33.1975 38.8938 33.2783 38.8343C33.3592 38.7748 33.4517 38.733 33.5499 38.7115L57.8754 32.9921C58.0948 32.9444 58.3242 32.979 58.5197 33.0893C58.7152 33.1996 58.863 33.3778 58.935 33.5899L68.1417 62.3362C68.1738 62.4312 68.1854 62.5319 68.1758 62.6317C68.1662 62.7315 68.1357 62.8281 68.0861 62.9153C68.0365 63.0026 67.969 63.0784 67.888 63.1378C67.807 63.1973 67.7144 63.2391 67.6161 63.2604Z" fill="#797673"></path><path d="M65.2034 61.627L44.3495 66.5303L35.9644 40.3472L56.8183 35.4438L65.2034 61.627Z" fill="#E1DFDD"></path><path d="M50.5135 36.7695L42.1765 38.7296L40.6112 33.8419C40.584 33.7611 40.5742 33.6755 40.5824 33.5906C40.5906 33.5058 40.6166 33.4236 40.6587 33.3494C40.7009 33.2752 40.7582 33.2107 40.827 33.16C40.8958 33.1094 40.9745 33.0737 41.058 33.0554L48.0349 31.4148C48.228 31.3729 48.4298 31.4034 48.6018 31.5004C48.7737 31.5975 48.9038 31.7542 48.9671 31.9408L50.5135 36.7695Z" fill="#2A88E5"></path><path d="M52.5922 39.5888L42.125 42.0499C41.9226 42.0938 41.7112 42.0619 41.5309 41.9602C41.3507 41.8585 41.2144 41.6942 41.148 41.4987L39.7852 37.2429L51.6864 34.4456L53.0662 38.7537C53.0951 38.8395 53.1056 38.9304 53.0969 39.0205C53.0882 39.1106 53.0607 39.1978 53.016 39.2766C52.9712 39.3554 52.9104 39.4239 52.8374 39.4777C52.7644 39.5315 52.6808 39.5693 52.5922 39.5888V39.5888Z" fill="#77B3EE"></path><path d="M69.6225 57.0544C66.6838 57.2567 63.8528 58.2387 61.4231 59.8987C52.9983 65.7937 46.3725 64.6075 44.0822 61.3626C40.7309 56.6123 35.9653 40.345 35.9653 40.345L56.8163 35.4438C56.8163 35.4438 59.3498 45.3127 62.8547 49.7322C66.2954 54.0717 67.711 53.9513 69.6225 57.0544Z" fill="white"></path><path d="M52.0766 63.9438C47.8544 64.7461 45.1173 63.5653 43.9058 61.084C44.7488 61.924 46.2099 62.6496 48.589 61.7929C48.589 61.7929 50.52 63.9488 52.0766 63.9438Z" fill="#C8C6C4"></path><path fill-rule="evenodd" clip-rule="evenodd" d="M56.5663 41.1416C56.6003 41.2828 56.5133 41.4248 56.372 41.4588L45.7357 44.0148C45.5944 44.0488 45.4524 43.9618 45.4185 43.8205C45.3845 43.6793 45.4715 43.5373 45.6128 43.5033L56.2491 40.9473C56.3904 40.9133 56.5324 41.0003 56.5663 41.1416Z" fill="#535150"></path><circle cx="41.7286" cy="44.8113" r="2.36725" fill="#87B8F7"></circle><path fill-rule="evenodd" clip-rule="evenodd" d="M42.8442 43.6448C42.9075 43.6805 42.9299 43.7606 42.8943 43.8239L41.7107 45.9282C41.6778 45.9867 41.606 46.011 41.5443 45.9846L40.6237 45.59C40.5569 45.5614 40.526 45.4841 40.5546 45.4173C40.5832 45.3506 40.6605 45.3197 40.7273 45.3483L41.5394 45.6963L42.6651 43.695C42.7007 43.6317 42.7809 43.6092 42.8442 43.6448Z" fill="white"></path><path fill-rule="evenodd" clip-rule="evenodd" d="M58.6693 47.3794C58.7033 47.5206 58.6163 47.6626 58.4751 47.6966L47.8387 50.2526C47.6975 50.2866 47.5554 50.1996 47.5215 50.0583C47.4876 49.9171 47.5745 49.7751 47.7158 49.7411L58.3521 47.1851C58.4934 47.1511 58.6354 47.2381 58.6693 47.3794Z" fill="#535150"></path><circle cx="43.8316" cy="51.0496" r="2.36725" fill="#87B8F7"></circle><path fill-rule="evenodd" clip-rule="evenodd" d="M44.9482 49.8826C45.0115 49.9182 45.034 49.9984 44.9983 50.0617L43.8147 52.166C43.7818 52.2245 43.71 52.2488 43.6483 52.2224L42.7277 51.8278C42.6609 51.7992 42.63 51.7219 42.6586 51.6551C42.6872 51.5884 42.7645 51.5574 42.8313 51.5861L43.6434 51.9341L44.7691 49.9328C44.8047 49.8695 44.8849 49.847 44.9482 49.8826Z" fill="white"></path><path fill-rule="evenodd" clip-rule="evenodd" d="M62.2055 53.2016C62.2394 53.3429 62.1524 53.4849 62.0112 53.5188L51.3748 56.0749C51.2336 56.1088 51.0916 56.0218 51.0576 55.8806C51.0237 55.7393 51.1107 55.5973 51.2519 55.5634L61.8883 53.0073C62.0295 52.9734 62.1715 53.0604 62.2055 53.2016Z" fill="#535150"></path><circle cx="47.3677" cy="56.8719" r="2.36725" fill="#87B8F7"></circle><path fill-rule="evenodd" clip-rule="evenodd" d="M48.4843 55.7049C48.5476 55.7405 48.5701 55.8207 48.5345 55.884L47.3509 57.9882C47.3179 58.0468 47.2462 58.0711 47.1844 58.0446L46.2638 57.6501C46.1971 57.6215 46.1661 57.5442 46.1947 57.4774C46.2234 57.4106 46.3007 57.3797 46.3674 57.4083L47.1795 57.7564L48.3052 55.755C48.3408 55.6917 48.421 55.6693 48.4843 55.7049Z" fill="white"></path><path d="M30.0218 51.0253L31.5324 48.3238L29.1731 47.0192C29.0779 46.9668 28.9657 46.954 28.861 46.9838C28.7564 47.0135 28.668 47.0833 28.6151 47.1779L27.5034 49.1662C27.4772 49.213 27.4605 49.2645 27.4543 49.3177C27.4481 49.371 27.4526 49.4249 27.4673 49.4764C27.4821 49.5279 27.507 49.5761 27.5405 49.6181C27.574 49.66 27.6155 49.6951 27.6626 49.7211L30.0218 51.0253Z" fill="#F5B4D1"></path><path d="M31.9689 48.5674L30.4585 51.2693L50.808 62.5204L52.3185 59.8184L31.9689 48.5674Z" fill="#FFC933"></path><path d="M52.2584 59.7991L50.7445 62.4988L53.5816 62.6565C53.6462 62.6602 53.7105 62.6457 53.7671 62.6148C53.8238 62.5839 53.8706 62.5378 53.9021 62.4817C53.9337 62.4256 53.9488 62.3618 53.9456 62.2976C53.9425 62.2334 53.9212 62.1713 53.8843 62.1186L52.2584 59.7991Z" fill="#E0C4B4"></path><path d="M30.3874 47.6909L28.877 50.3928L31.1674 51.6592L32.6778 48.9572L30.3874 47.6909Z" fill="#B3ECFF"></path><path d="M46.3393 7.22926C45.4282 8.2691 44.0686 8.98782 42.5118 9.30216C42.2605 9.38541 42.1834 9.61224 42.332 9.83142C43.3491 11.1049 43.9635 12.5788 44.1266 14.068C44.1238 14.4045 44.7237 14.6083 45.0265 14.3739C46.0632 13.2924 47.3486 12.4641 48.931 12.0741C49.1824 11.9909 49.2595 11.7641 49.1109 11.5449C48.0681 10.347 47.4279 8.94871 47.2392 7.53508C47.142 7.16469 46.5421 6.9608 46.3393 7.22926Z" fill="#F7B548"></path><path d="M56.7342 80.4203C55.755 81.3963 54.35 82.0216 52.7756 82.2302C52.5192 82.2963 52.427 82.5174 52.5604 82.7461C53.4894 84.0853 54.0029 85.5973 54.0652 87.0942C54.0397 87.4296 54.6245 87.6735 54.9423 87.46C56.0497 86.451 57.388 85.7113 58.9931 85.429C59.2496 85.3629 59.3418 85.1418 59.2083 84.9131C58.2487 83.6476 57.7043 82.2092 57.6114 80.7861C57.5394 80.41 56.9546 80.1661 56.7342 80.4203Z" fill="#F7B548"></path><path d="M32.0898 32.7318L11.4349 39.2807C11.3066 39.3237 11.2748 39.3324 11.2278 39.4031L9.56121 44.7702C9.54217 44.956 9.67043 45.2626 9.90801 45.3322L12.5013 41.296L14.3901 43.0079L10.3381 45.3304L31.6112 33.1373C31.9958 32.8731 32.1647 32.7763 32.0898 32.7318Z" fill="#4B96EE"></path><path d="M12.5 41.2955L9.84427 45.2979C10.0154 45.4971 10.2795 45.5565 10.4913 45.3901L14.4611 43.0722L12.5 41.2955Z" fill="#0F6EC0"></path><path d="M6.47645 34.7132L11.2274 39.4029L32.1929 32.8039C32.0425 32.7146 31.892 32.6252 31.6948 32.6062L30.737 32.6265L6.75588 33.5039C6.26778 33.6068 5.99682 34.3299 6.47645 34.7132Z" fill="#9AD2FF"></path><path d="M19.3286 47.8869C19.6498 48.1768 20.1599 48.1827 20.3959 47.8277L32.2081 33.1546C32.3026 33.0126 32.2496 32.783 32.1022 32.6955L12.5002 41.2954L19.3286 47.8869Z" fill="#9AD2FF"></path><path d="M75.9914 11.6664L71.3909 22.3283C71.3632 22.3953 71.3556 22.4113 71.3677 22.4551L72.9556 25.0143C73.0241 25.0872 73.1933 25.1429 73.3049 25.0712L72.5812 22.6041L73.9375 22.4404L73.4551 24.8964L75.9875 12.0025C76.0156 11.754 76.0357 11.6517 75.9914 11.6664Z" fill="#4B96EE"></path><path d="M72.5813 22.6046L73.2693 25.0851C73.41 25.0857 73.5268 24.9997 73.5338 24.8555L73.9892 22.4344L72.5813 22.6046Z" fill="#0F6EC0"></path><path d="M67.8015 22.7328L71.3683 22.4558L76.0576 11.6506C75.9686 11.6801 75.8796 11.7097 75.8027 11.7829L75.4746 12.1777L67.41 22.1951C67.2803 22.4288 67.4779 22.7924 67.8015 22.7328Z" fill="#9AD2FF"></path><path d="M77.6476 22.1543C77.8777 22.1261 78.0592 21.9216 77.9983 21.7014L76.2049 11.7672C76.1806 11.6791 76.0691 11.62 75.9819 11.6489L72.5814 22.6046L77.6476 22.1543Z" fill="#9AD2FF"></path><path d="M84.5636 64.9749C90.3136 64.9749 94.9749 60.3136 94.9749 54.5636C94.9749 48.8136 90.3136 44.1523 84.5636 44.1523C78.8136 44.1523 74.1523 48.8136 74.1523 54.5636C74.1523 60.3136 78.8136 64.9749 84.5636 64.9749Z" fill="#FFD590"></path><path d="M90.4047 63.0776C90.1526 62.7851 89.8776 62.515 89.5796 62.2675C89.5567 62.2675 89.5567 62.245 89.5338 62.245C89.4879 62.2225 89.4421 62.1775 89.3963 62.155C89.2817 62.065 89.19 61.9975 89.0754 61.93C89.0296 61.9075 88.9837 61.8625 88.915 61.84C88.8462 61.795 88.8004 61.7725 88.7316 61.75C88.5941 61.6825 88.4795 61.5925 88.3191 61.525C88.3191 61.525 88.2962 61.525 88.2962 61.5025C87.9066 61.2999 87.5169 61.1199 87.0815 61.0074C86.6002 60.8049 86.3252 60.5574 86.371 59.8598L86.371 58.2172C86.6919 58.0147 86.9669 57.7447 87.1961 57.4522C87.3565 57.7672 87.7003 57.9697 88.067 57.9922C88.617 57.9922 89.0754 57.5422 89.0754 57.0021C89.0754 56.4621 88.617 56.0121 88.067 56.0121C88.0441 56.0121 88.0441 56.0121 88.0212 56.0121C88.0441 55.9896 88.067 55.9671 88.0899 55.9446L88.1357 55.9446C88.7545 55.9446 89.2358 55.4495 89.2358 54.8645C89.2358 54.6845 89.19 54.527 89.1212 54.3695C89.3733 53.7394 89.5109 53.0869 89.5109 52.4118C89.5338 50.4992 89.0525 48.7891 87.5399 47.889C86.4856 46.1114 83.8729 45.8414 82.1311 46.5389C80.3434 47.259 79.3579 49.0366 78.785 47.7765C78.785 47.7765 77.387 49.2166 77.7766 50.8367C78.0516 52.0068 78.9225 52.6143 79.8851 52.6593C79.908 53.2669 80.0455 53.8744 80.2976 54.437C80.2289 54.572 80.183 54.7295 80.183 54.887C80.183 55.4945 80.6643 55.9671 81.2831 55.9671C81.2831 55.9896 81.306 56.0121 81.306 56.0346C81.306 56.0346 81.306 56.0346 81.2831 56.0346C80.7331 56.0346 80.2747 56.4846 80.2747 57.0246C80.2747 57.5647 80.7331 58.0147 81.2831 58.0147C81.6498 58.0147 81.9707 57.8122 82.154 57.4972C82.4749 57.9022 82.8874 58.2172 83.3458 58.4422L83.3458 59.8148C83.3229 60.4899 83.2541 60.7374 82.5436 61.0749C82.0623 61.2099 81.6269 61.4125 81.1914 61.6375C81.1914 61.6375 81.1685 61.6375 81.1685 61.66C81.1227 61.6825 81.0998 61.705 81.0768 61.7275C80.9164 61.8175 80.7789 61.9075 80.6414 61.9975C80.5955 62.02 80.5726 62.0425 80.5268 62.0875C80.458 62.1325 80.3893 62.2 80.3205 62.245C80.2747 62.2675 80.2289 62.3125 80.2059 62.3575C80.183 62.38 80.1372 62.425 80.1143 62.4475C79.7246 62.8076 79.3809 63.2126 79.06 63.6401C82.6811 65.5978 87.0815 65.3952 90.4047 63.0776Z" fill="#F7B548"></path><path d="M93.2211 63.0148C95.0573 63.0282 96.5568 61.5505 96.5702 59.7142C96.5836 57.878 95.1059 56.3785 93.2696 56.3651C91.4334 56.3517 89.9339 57.8294 89.9205 59.6656C89.9071 61.5019 91.3848 63.0013 93.2211 63.0148Z" fill="#FFE5B9"></path><path d="M95.4643 59.2968L93.6567 59.2836L93.6699 57.476L92.8452 57.4699L92.832 59.2775L91.0312 59.2644L91.0252 60.0892L92.8259 60.1023L92.8128 61.903L93.6375 61.9091L93.6507 60.1083L95.4583 60.1215L95.4643 59.2968Z" fill="#F7B548"></path><path d="M22.8822 77.8074C26.1308 77.8311 28.7836 75.2168 28.8073 71.9682C28.8311 68.7195 26.2168 66.0667 22.9681 66.043C19.7195 66.0192 17.0667 68.6335 17.043 71.8822C17.0192 75.1308 19.6335 77.7836 22.8822 77.8074Z" fill="#BDE2FF"></path><path d="M26.8528 71.2299L23.6548 71.2065L23.6782 68.0086L22.219 67.9979L22.1956 71.1959L19.0098 71.1726L18.9992 72.6317L22.185 72.655L22.1617 75.8408L23.6208 75.8515L23.6441 72.6657L26.8421 72.689L26.8528 71.2299Z" fill="#72ACF1"></path></g></g></svg>