<svg width="100" height="100" viewBox="0 0 100 100" fill="none" xmlns="http://www.w3.org/2000/svg"><path d="M50 100C77.6142 100 100 77.6142 100 50C100 22.3858 77.6142 0 50 0C22.3858 0 0 22.3858 0 50C0 77.6142 22.3858 100 50 100Z" fill="#E5F1FC"></path><mask id="mask0_1406_120608" style="mask-type:alpha" maskUnits="userSpaceOnUse" x="0" y="0" width="100" height="100"><path d="M0 50C0 22.3858 22.3858 0 50 0C77.6142 0 100 22.3858 100 50C100 77.6142 77.6142 100 50 100C22.3858 100 0 77.6142 0 50Z" fill="#E5F1FC"></path></mask><g mask="url(https://to-do.live.com/tasks/myday#mask0_1406_120608)"><path d="M106.379 -25.3095C65.1668 -8.55396 45.3719 38.5236 62.1656 79.8412C78.9592 121.159 125.982 141.07 167.194 124.315C208.406 107.559 228.201 60.4816 211.407 19.164C194.613 -22.1536 147.591 -42.065 106.379 -25.3095Z" stroke="#7EC6FF" stroke-width="0.5" stroke-linecap="round" stroke-linejoin="round"></path><path d="M110.298 6.48153C86.5386 16.1413 75.1266 43.282 84.8083 67.102C94.4901 90.9221 121.599 102.401 145.358 92.7415C169.117 83.0818 180.529 55.941 170.848 32.121C161.166 8.30095 134.057 -3.17822 110.298 6.48153Z" stroke="#BDE2FF" stroke-width="0.5" stroke-linecap="round" stroke-linejoin="round"></path><path d="M80.9195 54.0709C87.4919 55.2916 93.812 50.9397 95.0357 44.3507C96.2595 37.7617 91.9236 31.4307 85.3512 30.21C78.7788 28.9894 72.4587 33.3412 71.235 39.9303C70.0112 46.5193 74.3471 52.8503 80.9195 54.0709Z" fill="white"></path><path d="M65.5084 92.6452C71.3412 91.8335 75.4099 86.4351 74.5961 80.5876C73.7823 74.74 68.3942 70.6578 62.5614 71.4696C56.7286 72.2813 52.6599 77.6796 53.4737 83.5271C54.2875 89.3747 59.6756 93.457 65.5084 92.6452Z" fill="white"></path><path d="M67.3766 16.7901C66.3903 15.6297 65.8262 14.0323 65.7346 12.2852C65.6844 11.9978 65.4496 11.8773 65.1869 12.0039C63.6352 12.907 61.93 13.339 60.2809 13.2767C59.9147 13.2194 59.5958 13.8403 59.8026 14.208C60.814 15.5121 61.5094 17.0462 61.6793 18.8335C61.7295 19.1208 61.9642 19.2414 62.227 19.1148C63.7004 18.1715 65.3274 17.6993 66.8983 17.7214C67.3176 17.6752 67.6364 17.0544 67.3766 16.7901Z" fill="#FFC933"></path><path d="M-116.68 52.4186C-114.909 96.8711 -77.3461 131.471 -32.7812 129.7C11.7837 127.928 46.4747 90.4566 44.7034 46.004C42.932 1.55152 5.36911 -33.0484 -39.1958 -31.2771C-83.7607 -29.5058 -118.452 7.96603 -116.68 52.4186Z" stroke="#7EC6FF" stroke-width="0.5" stroke-linecap="round" stroke-linejoin="round"></path><path d="M-88.0769 51.2822C-86.9334 79.9773 -62.6858 102.312 -33.9182 101.169C-5.15068 100.025 17.2431 75.8366 16.0997 47.1415C14.9562 18.4465 -9.29142 -3.8885 -38.059 -2.74508C-66.8265 -1.60166 -89.2203 22.5872 -88.0769 51.2822Z" stroke="#BDE2FF" stroke-width="0.5" stroke-linecap="round" stroke-linejoin="round"></path><path d="M16.9223 71.1849C22.6924 71.0541 27.2638 66.2587 27.1326 60.474C27.0015 54.6892 22.2176 50.1058 16.4475 50.2366C10.6773 50.3674 6.10601 55.1629 6.23713 60.9476C6.36826 66.7323 11.1522 71.3157 16.9223 71.1849Z" fill="white"></path><path d="M41.4114 24.6903C45.9975 21.9063 47.4526 15.9223 44.6616 11.3247C41.8705 6.72701 35.8902 5.25677 31.3042 8.04077C26.7181 10.8248 25.263 16.8088 28.054 21.4064C30.845 26.0041 36.8254 27.4743 41.4114 24.6903Z" fill="white"></path><path d="M36.4837 19.2437C35.732 19.3393 35.1973 19.9705 35.1836 20.7186C35.1892 20.7872 35.1818 20.864 35.2006 20.9247C35.3035 21.7463 36.0701 22.3273 36.8825 22.2129C37.7029 22.1119 38.2764 21.3667 38.1655 20.532C38.1598 20.4633 38.1329 20.3894 38.1273 20.3207C37.9249 19.6317 37.2355 19.1482 36.4837 19.2437Z" fill="#1C4B9B"></path><path d="M41.8553 18.5455C41.7037 18.3849 41.455 18.3013 41.1355 18.2788C40.9822 18.2635 40.8554 18.2324 40.7496 18.2064C40.6147 18.162 40.498 18.0884 40.4158 18.0121C40.3385 17.9146 40.2797 17.7881 40.2574 17.6031L39.8637 14.6128C39.814 14.2641 39.722 13.905 39.5985 13.5831C39.4671 13.2478 39.283 12.9446 39.0726 12.6575C38.8623 12.3701 38.6204 12.1201 38.3472 11.9071C38.0659 11.681 37.7744 11.4971 37.4726 11.3557C37.1787 11.2273 36.8666 11.1282 36.5653 11.0765C36.6145 10.9204 36.6213 10.7537 36.5939 10.59C36.5026 9.90591 35.8896 9.42992 35.2065 9.51996C34.5233 9.61001 34.0493 10.2224 34.1408 10.9066C34.1682 11.0704 34.2088 11.2262 34.2887 11.358C34.0097 11.4913 33.7468 11.6509 33.4998 11.8369C32.9481 12.262 32.5369 12.8003 32.2717 13.4304C31.9961 14.1029 31.8999 14.7746 31.9863 15.48L32.3994 18.6209C32.4296 18.819 32.4068 18.9591 32.3467 19.0677C32.2449 19.2559 32.0294 19.4047 31.7133 19.5064C31.5657 19.5598 31.4525 19.6106 31.3473 19.6745C31.229 19.7462 31.1266 19.8445 31.0666 19.9531C31.0066 20.0617 30.9918 20.215 31.006 20.3868C31.0311 20.6061 31.1352 20.7775 31.3181 20.901C31.4959 21.0456 31.6863 21.0923 31.9052 21.0677L34.659 20.7129L38.5816 20.208L41.3223 19.8612C41.4251 19.8529 41.5121 19.8182 41.6041 19.7624C41.6962 19.7064 41.7802 19.6373 41.8352 19.55C41.9793 19.3722 42.0255 19.1817 41.9872 18.9705C42.0124 18.7748 41.9456 18.635 41.8553 18.5455Z" fill="#2A88E5"></path><path d="M1.82499 9.66281C0.815201 10.1526 -0.428569 10.2605 -1.69205 10.0038C-1.90632 9.9867 -2.03563 10.1319 -1.99376 10.3428C-1.6354 11.6164 -1.64156 12.9127 -1.99006 14.0779C-2.09843 14.3286 -1.71422 14.6706 -1.41374 14.5909C-0.296803 14.1096 0.926036 13.8963 2.23261 14.1046C2.44688 14.1217 2.57618 13.9764 2.53431 13.7656C2.13286 12.5404 2.09591 11.2925 2.40131 10.1757C2.44565 9.8681 2.06143 9.52612 1.82499 9.66281Z" fill="#FFC933"></path><path d="M39.4581 87.7035C38.4885 86.529 37.9474 84.9237 37.8808 83.1755C37.8347 82.8874 37.6017 82.7635 37.3371 82.8863C35.7727 83.7672 34.0615 84.1747 32.4134 84.0887C32.0481 84.0262 31.7204 84.6425 31.9218 85.0131C32.9144 86.3315 33.5879 87.8755 33.7321 89.665C33.7782 89.9531 34.0112 90.077 34.2758 89.9542C35.7625 89.032 37.3961 88.5832 38.9665 88.6278C39.3864 88.5876 39.7141 87.9714 39.4581 87.7035Z" fill="#FFC933"></path><path d="M67.0154 62.2411L42.9569 67.8978C42.7391 67.945 42.5114 67.9105 42.3175 67.8011C42.1235 67.6916 41.9767 67.5147 41.9053 67.3042L32.8006 38.8731C32.7689 38.7792 32.7574 38.6797 32.7669 38.5811C32.7763 38.4824 32.8065 38.3869 32.8555 38.3007C32.9044 38.2145 32.9711 38.1395 33.0511 38.0807C33.131 38.0218 33.2225 37.9804 33.3196 37.9592L57.3806 32.3019C57.5976 32.2548 57.8245 32.289 58.0179 32.3981C58.2112 32.5072 58.3575 32.6835 58.4286 32.8933L67.5352 61.3269C67.5669 61.4209 67.5784 61.5205 67.569 61.6192C67.5595 61.7179 67.5292 61.8135 67.4802 61.8997C67.4311 61.986 67.3644 62.061 67.2843 62.1198C67.2042 62.1786 67.1126 62.2199 67.0154 62.2411Z" fill="#797673"></path><path d="M64.6291 60.6254L44.0019 65.4754L35.708 39.577L56.3351 34.7271L64.6291 60.6254Z" fill="#E1DFDD"></path><path d="M50.0993 36.0385L41.853 37.9772L40.3047 33.1427C40.2778 33.0628 40.2681 32.9781 40.2762 32.8941C40.2843 32.8102 40.31 32.7289 40.3517 32.6555C40.3934 32.5822 40.4501 32.5184 40.5182 32.4683C40.5862 32.4181 40.664 32.3829 40.7467 32.3647L47.6477 30.742C47.8387 30.7006 48.0383 30.7307 48.2084 30.8267C48.3784 30.9227 48.5071 31.0777 48.5697 31.2623L50.0993 36.0385Z" fill="#2A88E5"></path><path d="M52.154 38.8274L41.8007 41.2617C41.6006 41.3051 41.3914 41.2735 41.2131 41.1729C41.0349 41.0723 40.9 40.9098 40.8343 40.7165L39.4863 36.507L51.2581 33.74L52.623 38.0014C52.6515 38.0862 52.6619 38.1761 52.6533 38.2652C52.6447 38.3543 52.6174 38.4406 52.5732 38.5185C52.529 38.5964 52.4688 38.6642 52.3966 38.7174C52.3244 38.7706 52.2417 38.8081 52.154 38.8274Z" fill="#77B3EE"></path><path d="M69 56.1026C66.0933 56.3026 63.2931 57.274 60.8898 58.9159C52.5567 64.7467 46.003 63.5734 43.7375 60.3638C40.4227 55.6652 35.709 39.5749 35.709 39.5749L56.3331 34.7271C56.3331 34.7271 58.8391 44.4886 62.3058 48.86C65.7091 53.1523 67.1094 53.0332 69 56.1026Z" fill="white"></path><path fill-rule="evenodd" clip-rule="evenodd" d="M53.8103 39.8158C53.8391 39.9356 53.7653 40.056 53.6455 40.0848L44.6249 42.2526C44.5051 42.2814 44.3846 42.2076 44.3558 42.0878C44.327 41.968 44.4008 41.8476 44.5206 41.8188L53.5413 39.651C53.661 39.6222 53.7815 39.696 53.8103 39.8158Z" fill="#535150"></path><path d="M41.2264 44.9357C42.3352 44.9357 43.2341 44.0369 43.2341 42.9281C43.2341 41.8193 42.3352 40.9204 41.2264 40.9204C40.1176 40.9204 39.2188 41.8193 39.2188 42.9281C39.2188 44.0369 40.1176 44.9357 41.2264 44.9357Z" fill="#87B8F7"></path><path fill-rule="evenodd" clip-rule="evenodd" d="M42.1725 41.9387C42.2262 41.9689 42.2452 42.0369 42.215 42.0906L41.2112 43.8751C41.1833 43.9248 41.1224 43.9454 41.0701 43.923L40.2893 43.5884C40.2327 43.5641 40.2065 43.4985 40.2307 43.4419C40.255 43.3853 40.3206 43.3591 40.3772 43.3833L41.0659 43.6785L42.0206 41.9812C42.0508 41.9275 42.1188 41.9085 42.1725 41.9387Z" fill="white"></path><path d="M51.6444 62.9171C47.4682 63.7107 44.7608 62.5428 43.5625 60.0884C44.3964 60.9193 45.8416 61.637 48.1948 60.7896C48.1948 60.7896 50.1048 62.9221 51.6444 62.9171Z" fill="#C8C6C4"></path><path d="M29.936 46.7016L31.537 44.092L29.2575 42.7083C29.1655 42.6527 29.0551 42.6356 28.9505 42.6608C28.8459 42.686 28.7557 42.7515 28.6996 42.8428L27.5214 44.7634C27.4936 44.8086 27.4751 44.8588 27.4668 44.9112C27.4586 44.9635 27.4608 45.017 27.4733 45.0685C27.4859 45.1201 27.5085 45.1686 27.5399 45.2115C27.5714 45.2543 27.611 45.2906 27.6565 45.3182L29.936 46.7016Z" fill="#F5B4D1"></path><path d="M31.9593 44.3501L30.3584 46.96L50.0198 58.8939L51.6207 56.284L31.9593 44.3501Z" fill="#FFC933"></path><path d="M51.5623 56.2637L49.958 58.8713L52.7557 59.1407C52.8193 59.1469 52.8834 59.1352 52.9407 59.1069C52.9979 59.0786 53.046 59.0349 53.0794 58.9807C53.1129 58.9266 53.1303 58.8641 53.1298 58.8006C53.1292 58.737 53.1107 58.6748 53.0764 58.6212L51.5623 56.2637Z" fill="#E0C4B4"></path><path d="M30.43 43.4204L28.8291 46.0303L31.0421 47.3735L32.643 44.7636L30.43 43.4204Z" fill="#B3ECFF"></path><path d="M88.7559 42.9135L85.1561 39.3017L85.1098 39.2526C85.0388 39.1912 84.9545 39.147 84.8635 39.1235C84.773 39.1025 84.6789 39.1029 84.5886 39.1247L84.5216 39.146L79.6533 40.6768C79.5583 40.7085 79.4861 40.7866 79.4618 40.8838C79.4359 40.9845 79.466 41.0915 79.5407 41.1639L83.1477 44.7741L83.198 44.8208C83.267 44.8832 83.3506 44.9273 83.4411 44.949C83.5324 44.972 83.628 44.9719 83.7192 44.9486L83.7822 44.9298L88.6375 43.3958C88.7326 43.3626 88.804 43.283 88.8266 43.1848C88.8512 43.0882 88.8245 42.9858 88.7559 42.9135Z" fill="#123B6D"></path><path d="M80.7158 37.0762L83.6456 37.795L83.0102 40.3848L80.0804 39.666L80.7158 37.0762Z" fill="#0078D4"></path><path d="M83.6455 37.7949L86.5429 38.5058L85.9075 41.0957L83.0101 40.3848L83.6455 37.7949Z" fill="#28A8EA"></path><path d="M86.543 38.5059L89.4566 39.2207L88.8211 41.8106L85.9076 41.0957L86.543 38.5059Z" fill="#50D9FF"></path><path d="M85.9072 41.0957L88.8208 41.8105L88.1854 44.4004L85.2718 43.6856L85.9072 41.0957Z" fill="#28A8EA"></path><path d="M83.0098 40.3848L85.9072 41.0956L85.2718 43.6855L82.3743 42.9746L83.0098 40.3848Z" fill="#0078D4"></path><path d="M82.374 42.9746L85.2714 43.6855L84.5566 46.5991L81.6592 45.8882L82.374 42.9746Z" fill="#0364B8"></path><path d="M79.5205 42.1714L82.3985 42.8775L81.8099 45.2763L78.932 44.5702L79.5205 42.1714Z" fill="#14447D"></path><path d="M85.2715 43.6855L88.2013 44.4044L87.5658 46.9942L84.6361 46.2754L85.2715 43.6855Z" fill="#0078D4"></path><path d="M80.167 39.5364L83.045 40.2425L82.3976 42.8809L79.5197 42.1748L80.167 39.5364Z" fill="#0364B8"></path><path d="M89.4562 39.2206L89.7811 37.8966C89.8136 37.7638 89.8261 37.5885 89.7518 37.4505C89.6775 37.3125 89.5513 37.2098 89.4011 37.1649L81.7424 35.2687C81.5878 35.2379 81.4274 35.2699 81.2964 35.3575C81.1655 35.4451 81.0748 35.5812 81.0443 35.7358L80.7155 37.0761L89.4562 39.2206Z" fill="#0358A7"></path><path opacity="0.5" d="M83.1372 45.3926L78.9961 41.2876L79.1152 40.802L83.1238 44.2076V44.2076C83.2824 44.3423 83.4948 44.3953 83.6981 44.3507L88.817 43.2293V43.2293L88.7478 43.5085L83.1372 45.3926Z" fill="#0A2767"></path><path d="M88.6518 43.3959L83.6265 44.895L83.5603 44.913C83.4656 44.9353 83.3669 44.9347 83.2725 44.9111C83.1789 44.8887 83.0921 44.8438 83.0197 44.7804L82.9694 44.7337L79.2134 41.087C79.1401 41.0168 79.1106 40.9124 79.1363 40.8141L77.8615 46.01C77.8187 46.1731 77.8427 46.3465 77.9282 46.4918C78.0136 46.6371 78.1535 46.7423 78.3168 46.7842L86.8083 48.8675C86.972 48.905 87.144 48.8759 87.2863 48.7865C87.4285 48.6972 87.5189 48.5284 87.5563 48.3646L88.8271 43.1849C88.8053 43.2834 88.7483 43.3664 88.6518 43.3959Z" fill="#1490DF"></path><path d="M86.7954 48.8643C86.9315 48.8974 87.0745 48.8869 87.2043 48.8342L83.2555 44.8965L83.1988 44.862L79.2506 41.0755L79.1152 40.802L77.8444 45.9817C77.7576 46.3355 77.987 46.6975 78.3395 46.7896L86.7954 48.8643Z" fill="#28A8EA"></path><path opacity="0.6" d="M80.5563 37.7236L80.6357 37.3998L83.3324 38.0614C83.631 38.1347 83.8137 38.4361 83.7404 38.7347L82.2845 44.6687C82.1968 45.0263 81.8358 45.2451 81.4782 45.1573L78.2409 44.3631L78.3203 44.0393L80.5563 37.7236Z" fill="#0A2767"></path><path d="M77.5357 36.9825L82.9291 38.3058C83.2277 38.379 83.4104 38.6804 83.3371 38.979L82.0139 44.3724C81.9406 44.671 81.6392 44.8536 81.3406 44.7804L75.9472 43.4571C75.6486 43.3839 75.466 43.0824 75.5392 42.7839L76.8625 37.3905C76.9357 37.0919 77.2372 36.9092 77.5357 36.9825Z" fill="#107AD5"></path><path fill-rule="evenodd" clip-rule="evenodd" d="M78.9056 39.0243C78.5975 39.1176 78.3249 39.302 78.1237 39.5533C77.9001 39.8287 77.7422 40.1515 77.6621 40.4971C77.5761 40.8234 77.5698 41.1656 77.6439 41.4949C77.7119 41.7981 77.8671 42.0747 78.0904 42.2909C78.3317 42.5221 78.6319 42.6825 78.9583 42.7543C79.2865 42.8424 79.6325 42.8394 79.9591 42.7459C80.2652 42.6528 80.5368 42.471 80.7394 42.2235C80.9669 41.9516 81.1269 41.6298 81.2066 41.2844C81.2954 40.9488 81.3005 40.5965 81.2216 40.2584C81.1546 39.9601 81.0036 39.6872 80.7864 39.4721C80.5507 39.2449 80.2568 39.0873 79.9371 39.0166C79.5991 38.9243 79.2422 38.927 78.9056 39.0243ZM78.6156 41.8431C78.4896 41.6896 78.408 41.5046 78.3796 41.3081L78.3683 41.3122C78.3115 40.8562 78.4246 40.3952 78.686 40.0173C78.8041 39.8537 78.9661 39.7269 79.1533 39.6514C79.3432 39.579 79.5512 39.5688 79.7474 39.6221C79.955 39.6649 80.1417 39.7774 80.2767 39.9408C80.3965 40.0993 80.4691 40.2884 80.486 40.4864C80.5065 40.7066 80.4892 40.9287 80.4348 41.1431C80.3845 41.3569 80.2952 41.5595 80.1714 41.7409C80.0658 41.904 79.9149 42.0327 79.7373 42.1114C79.54 42.188 79.3229 42.1975 79.1197 42.1384C78.9248 42.0954 78.7484 41.992 78.6156 41.8431Z" fill="white"></path><path d="M70.0226 80.6675H67.2486L66.4746 81.2935V84.3981C66.4746 85.5508 67.4086 86.4855 68.5613 86.4855C69.7146 86.4855 70.6486 85.5508 70.6486 84.3981V81.2935C70.6486 80.9481 70.3686 80.6675 70.0226 80.6675" fill="#5059C9"></path><path d="M70.6667 78.6666C70.6667 79.4026 70.07 79.9999 69.3333 79.9999C68.5967 79.9999 68 79.4026 68 78.6666C68 77.9306 68.5967 77.3333 69.3333 77.3333C70.07 77.3333 70.6667 77.9306 70.6667 78.6666" fill="#5059C9"></path><path d="M62.5948 80.6697H67.3974C67.7281 80.6697 67.9961 80.9377 67.9961 81.2683V85.063C67.9961 86.687 66.6801 88.003 65.0561 88.003H64.9361C63.3121 88.003 61.9961 86.687 61.9961 85.063V81.2683C61.9961 80.9377 62.2641 80.6697 62.5948 80.6697" fill="#7B83EB"></path><path d="M67.2708 78C67.2708 79.07 66.4035 79.938 65.3328 79.938C64.2628 79.938 63.3955 79.07 63.3955 78C63.3955 76.93 64.2628 76.062 65.3328 76.062C66.4035 76.062 67.2708 76.93 67.2708 78" fill="#7B83EB"></path><path opacity="0.5" fill-rule="evenodd" clip-rule="evenodd" d="M66.0001 79.7877V79.3337C66.0001 78.967 65.6854 78.667 65.3008 78.667H63.5141C63.7921 79.3963 64.4928 79.917 65.3201 79.917C65.5601 79.917 65.7881 79.8677 66.0001 79.7877ZM61.9961 81.2683C61.9961 80.9377 62.2641 80.6697 62.5948 80.6697H66.0001V85.893C66.0001 86.2597 65.5881 86.667 65.1634 86.667H62.4768C62.1748 86.205 61.9961 85.6557 61.9961 85.063V81.2683Z" fill="black"></path><path d="M57.9997 86C57.633 86 57.333 85.7 57.333 85.3333V78.6667C57.333 78.3 57.633 78 57.9997 78H64.6663C65.033 78 65.333 78.3 65.333 78.6667V85.3333C65.333 85.7 65.033 86 64.6663 86H57.9997Z" fill="#4B53BC"></path><path d="M63.3336 80.6667H61.8902V84.5467H60.9416V80.6667H59.4902V79.7134H63.3336V80.6667Z" fill="white"></path><path d="M13.2725 65.6813C13.2725 65.9412 13.4158 66.1647 13.625 66.2825C13.6247 66.2838 16.2643 67.7699 16.2643 67.7699C16.4659 67.8896 16.7 67.9596 16.9506 67.9596C17.1108 67.9596 17.2636 67.9305 17.4064 67.879L18.3082 67.617L18.3083 64.9907C18.3083 64.9907 13.9557 64.9909 13.9532 64.9909C13.5775 64.9909 13.2725 65.2999 13.2725 65.6813Z" fill="url(https://to-do.live.com/tasks/myday#paint0_linear_1406_120608)"></path><path d="M16.9453 54.1428C16.7307 54.1428 16.5124 54.1868 16.3195 54.288V54.288C16.2821 54.3091 12.0258 56.7117 12.0258 56.7117V56.7117C11.9671 56.7419 11.9113 56.7763 11.8582 56.8145V56.8145C11.8529 56.8182 11.848 56.8222 11.8428 56.826V56.826C11.8101 56.8502 11.7784 56.8756 11.7481 56.9026V56.9026C11.7338 56.9149 11.7199 56.9274 11.7063 56.9404V56.9404C11.6881 56.9579 11.6707 56.9762 11.6535 56.9946V56.9946C11.6025 57.0487 11.5152 57.1677 11.5152 57.1677V57.1677C11.3707 57.3846 11.2861 57.6447 11.2861 57.9248V57.9248V64.3078C11.2861 64.6849 11.5913 64.9906 11.9679 64.9906V64.9906C12.0616 64.9906 12.1509 64.9715 12.2322 64.9372V64.9372C12.2322 64.9372 13.449 64.2523 13.4501 64.2513V64.2513C13.6695 64.1403 13.8438 63.9532 13.9372 63.724V63.724C13.9588 63.6744 13.9761 63.6191 13.9889 63.5572V63.5572C13.9923 63.5415 13.9948 63.5253 13.9974 63.5094V63.5094C13.9989 63.5006 14.0003 63.4922 14.0015 63.4833V63.4833C14.0053 63.4563 14.008 63.4292 14.0098 63.4016V63.4016V63.401C14.0112 63.3799 14.0129 63.3589 14.0129 63.3373V63.3373V59.9408C14.0129 59.1213 14.0131 58.8808 14.0131 58.8808V58.8808C14.0131 58.5899 14.135 58.3282 14.3295 58.1418V58.1418C14.309 58.1612 14.2765 58.1918 14.3297 58.1416V58.1416C14.3339 58.1376 14.3382 58.1336 14.3426 58.1295V58.1295C14.4365 58.0409 14.5604 57.9659 14.7079 57.9121V57.9121C14.8554 57.8583 18.3087 56.6007 18.3087 56.6007V56.6007V54.4863L17.3289 54.1984C17.2072 54.1628 17.0786 54.1428 16.9453 54.1428Z" fill="url(https://to-do.live.com/tasks/myday#paint1_linear_1406_120608)"></path><path d="M18.2307 66.6343C18.2338 67.2255 17.8477 67.7329 17.2959 67.9215C17.4176 67.8872 21.2693 66.8063 21.2693 66.8063C21.8403 66.6301 22.2543 66.1094 22.2543 65.4943V56.6283C22.2543 56.0132 21.8403 55.4927 21.2693 55.3164C21.2693 55.3164 17.3601 54.1988 17.2965 54.1809C17.8703 54.4004 18.2307 54.8923 18.2307 55.489C18.2307 55.489 18.2279 66.3728 18.2307 66.6343Z" fill="url(https://to-do.live.com/tasks/myday#paint2_linear_1406_120608)"></path></g><defs><linearGradient id="paint0_linear_1406_120608" x1="15.4189" y1="67.0243" x2="18.3083" y2="67.0243" gradientUnits="userSpaceOnUse"><stop stop-color="#F32B44"></stop><stop offset="1" stop-color="#940F1A"></stop></linearGradient><linearGradient id="paint1_linear_1406_120608" x1="15.2781" y1="49.1914" x2="5.57905" y2="55.0443" gradientUnits="userSpaceOnUse"><stop stop-color="#690500"></stop><stop offset="0.572527" stop-color="#C72127"></stop><stop offset="0.756218" stop-color="#BF4068"></stop><stop offset="1" stop-color="#B85BA2"></stop></linearGradient><linearGradient id="paint2_linear_1406_120608" x1="17.4356" y1="54.1809" x2="17.4356" y2="67.1474" gradientUnits="userSpaceOnUse"><stop stop-color="#FFCD05"></stop><stop offset="0.0633127" stop-color="#F4A204"></stop><stop offset="0.162109" stop-color="#E97B03"></stop><stop offset="0.526825" stop-color="#D83B01"></stop><stop offset="1" stop-color="#D83B01"></stop></linearGradient></defs></svg>