<svg width="100" height="100" viewBox="0 0 100 100" fill="none" xmlns="http://www.w3.org/2000/svg"><circle cx="50" cy="50" r="50" fill="#E5F1FC"></circle><ellipse rx="42.8292" ry="42.9373" transform="matrix(0.0398161 0.999207 -0.999211 0.0397156 49.7545 50.3157)" stroke="#BDE2FF" stroke-width="0.5" stroke-linecap="round" stroke-linejoin="round"></ellipse><ellipse rx="32.4645" ry="32.5464" transform="matrix(0.0398161 0.999207 -0.999211 0.0397156 49.7552 50.3151)" stroke="#7EC6FF" stroke-width="0.5" stroke-linecap="round" stroke-linejoin="round"></ellipse><path d="M48.5577 82.0497C47.804 81.7018 47.159 81.041 46.7134 80.1979C46.6227 80.0673 46.4789 80.0615 46.378 80.1843C45.8175 80.9865 45.0731 81.5909 44.2432 81.938C44.049 81.9936 44.0336 82.3737 44.2201 82.5082C45.0191 82.9214 45.7146 83.5208 46.2082 84.3658C46.2989 84.4964 46.4426 84.5023 46.5436 84.3794C47.0561 83.5753 47.7526 82.9689 48.5346 82.6199C48.7314 82.501 48.7468 82.1208 48.5577 82.0497Z" fill="#72ACF1"></path><path d="M91.1855 40.6544C90.9696 41.6012 90.3692 42.4992 89.512 43.213C89.3845 43.3484 89.4125 43.5143 89.5775 43.6002C90.6312 44.0477 91.5029 44.7535 92.1007 45.6195C92.2113 45.8283 92.6501 45.7541 92.759 45.5081C93.0387 44.4937 93.5566 43.5528 94.4044 42.7836C94.532 42.6482 94.5039 42.4823 94.3389 42.3964C93.2946 42.0042 92.4323 41.3537 91.8438 40.5431C91.6601 40.3466 91.2213 40.4208 91.1855 40.6544Z" fill="#FFC933"></path><path d="M21.2543 17.6902C20.3507 18.0457 19.2705 18.0563 18.1976 17.751C18.0139 17.722 17.8927 17.8387 17.9148 18.0234C18.1395 19.1459 18.0481 20.2638 17.6701 21.2459C17.56 21.4549 17.8688 21.7754 18.1333 21.7266C19.1288 21.3856 20.1979 21.2827 21.3112 21.5491C21.4949 21.5781 21.6161 21.4614 21.594 21.2767C21.3289 20.1931 21.3799 19.1141 21.7174 18.171C21.7761 17.9085 21.4673 17.5879 21.2543 17.6902Z" fill="#72ACF1"></path><path d="M32.7901 73.1221H8.21083C7.54359 73.1221 7.00049 72.579 7.00049 71.9117V57.1238H34.0005V71.9117C34.0005 72.579 33.4574 73.1221 32.7901 73.1221Z" fill="#E8E7E7"></path><path d="M33.985 59.1102H7.00049V56.4568C7.00049 56.0378 7.34187 55.6809 7.77635 55.6809H33.2246C33.6436 55.6809 34.0005 56.0223 34.0005 56.4568V59.1102H33.985Z" fill="#0078DB"></path><path d="M32.4471 62.6946H8.55058C8.37989 62.6946 8.24023 62.555 8.24023 62.3843V60.8326C8.24023 60.6619 8.37989 60.5222 8.55058 60.5222H32.4471C32.6178 60.5222 32.7575 60.6619 32.7575 60.8326V62.3843C32.7575 62.555 32.6178 62.6946 32.4471 62.6946Z" fill="white"></path><path d="M32.4471 65.69H8.55058C8.37989 65.69 8.24023 65.5503 8.24023 65.3796V63.8279C8.24023 63.6572 8.37989 63.5176 8.55058 63.5176H32.4471C32.6178 63.5176 32.7575 63.6572 32.7575 63.8279V65.3796C32.7575 65.5503 32.6178 65.69 32.4471 65.69Z" fill="white"></path><path d="M32.4471 68.6995H8.55058C8.37989 68.6995 8.24023 68.5599 8.24023 68.3892V66.8374C8.24023 66.6668 8.37989 66.5271 8.55058 66.5271H32.4471C32.6178 66.5271 32.7575 66.6668 32.7575 66.8374V68.3892C32.7575 68.5599 32.6178 68.6995 32.4471 68.6995Z" fill="white"></path><path d="M32.4471 71.6946H8.55058C8.37989 71.6946 8.24023 71.555 8.24023 71.3843V69.8326C8.24023 69.6619 8.37989 69.5222 8.55058 69.5222H32.4471C32.6178 69.5222 32.7575 69.6619 32.7575 69.8326V71.3843C32.7575 71.555 32.6178 71.6946 32.4471 71.6946Z" fill="white"></path><path opacity="0.2" d="M62.6633 31.7097L53.3484 28.9714C52.4932 28.724 52.0063 27.8254 52.2537 26.9702L58.2626 6.57544C58.51 5.72025 59.4087 5.23335 60.2544 5.49438L69.583 8.24208C70.4382 8.48947 70.9251 9.38809 70.6777 10.2433L64.6645 30.615C64.4077 31.4838 63.5091 31.9707 62.6633 31.7097Z" fill="url(https://to-do.live.com/tasks/myday#paint0_radial_1406_121345)"></path><path d="M64.1986 30.153L69.713 9.65875C69.8055 9.32025 69.5952 8.95414 69.2567 8.86167L59.7369 6.30396C59.3984 6.21149 59.0323 6.42177 58.9398 6.76026L53.4254 27.2545C53.3329 27.593 53.5432 27.9591 53.8817 28.0516L63.4015 30.6093C63.74 30.7018 64.1061 30.4915 64.1986 30.153Z" fill="white"></path><path d="M70.2538 9.03837L58.7729 5.94727L57.8215 9.48106L69.3024 12.5722L70.2538 9.03837Z" fill="#2B88D8"></path><path d="M64.9715 27.7559L54.0503 24.8154L53.0989 28.3492L64.02 31.2897L64.9715 27.7559Z" fill="#BDE2FF"></path><path d="M65.06 30.3634L70.5838 9.85556C70.7687 9.17857 70.4855 8.4806 69.94 8.10475C69.79 8.00139 69.6212 7.9253 69.4336 7.87649L60.0741 5.3488C59.2096 5.11505 58.3288 5.63437 58.1045 6.48532L52.5807 26.9932C52.3957 27.6702 52.679 28.3681 53.2244 28.744C53.3744 28.8474 53.5432 28.9234 53.7308 28.9723L63.1133 31.4957C63.9455 31.7473 64.8262 31.228 65.06 30.3634ZM63.3438 30.5484L53.9612 28.0249C53.8973 28.001 53.8334 27.977 53.7788 27.9395C53.5606 27.7891 53.4637 27.5212 53.5365 27.2697L59.0466 6.75242C59.1297 6.42756 59.4728 6.22153 59.8113 6.314L69.1938 8.83744C69.2577 8.86139 69.3217 8.88534 69.3762 8.92292C69.5944 9.07326 69.6914 9.34118 69.6186 9.5927L64.0948 30.1006C64.016 30.4485 63.6823 30.6409 63.3438 30.5484Z" fill="#E8E7E7"></path><path d="M66.8573 8.43478L66.9353 8.14659C66.9695 8.00931 66.8938 7.85656 66.7429 7.8129L62.4336 6.65351C62.2963 6.61925 62.1436 6.69499 62.0999 6.84591L62.022 7.1341C61.9347 7.43593 62.0862 7.74143 62.3607 7.80995L66.2309 8.84777C66.496 8.92993 66.77 8.73661 66.8573 8.43478Z" fill="#797673"></path><path d="M65.4245 7.7691C65.4442 7.68213 65.4042 7.59424 65.3309 7.58392L63.7663 7.16946C63.6929 7.15915 63.605 7.19914 63.5853 7.28612C63.5656 7.37309 63.6056 7.46098 63.679 7.47129L65.2572 7.89515C65.3305 7.90546 65.4048 7.85608 65.4245 7.7691Z" fill="#C8C6C4"></path><path d="M67.1057 14.1304L59.0308 11.9563L58.7509 12.9957L66.8259 15.1698L67.1057 14.1304Z" fill="#E1DFDD"></path><path d="M63.4045 15.2611L58.4956 13.9395L58.2158 14.9788L63.1247 16.3005L63.4045 15.2611Z" fill="#E1DFDD"></path><path d="M60.5983 18.4062L57.5762 17.5925L57.2963 18.6319L60.3185 19.4456L60.5983 18.4062Z" fill="#E1DFDD"></path><path d="M64.0233 21.4619L57.0356 19.5806L56.7558 20.6199L63.7435 22.5013L64.0233 21.4619Z" fill="#E1DFDD"></path><path d="M89.6557 74.2203L89.9791 72.1385C90.253 72.1762 90.4435 72.4354 90.3967 72.6989L90.2265 73.7936C90.1784 74.0767 89.9297 74.258 89.6557 74.2203Z" fill="url(https://to-do.live.com/tasks/myday#paint1_linear_1406_121345)"></path><path d="M89.7668 70.1216C89.7668 70.1216 89.3558 68.7027 90.0098 67.7581L91.0445 66.2755C91.2184 66.0302 91.1524 65.6803 90.907 65.5064L87.3647 63.0539C87.1194 62.88 86.7695 62.946 86.5956 63.1913L85.5609 64.6739C84.907 65.6185 83.4287 65.7294 83.4287 65.7294L86.5831 67.3173L89.7668 70.1216Z" fill="url(https://to-do.live.com/tasks/myday#paint2_linear_1406_121345)"></path><path d="M83.8064 78.7063C83.8064 78.7063 82.3281 78.8172 81.6742 79.7619L80.6395 81.2444C80.4656 81.4897 80.1157 81.5558 79.8704 81.3818L76.3281 78.9294C76.0827 78.7554 76.0167 78.4055 76.1907 78.1602L77.2253 76.6777C77.8793 75.733 77.4683 74.3142 77.4683 74.3142L80.0668 76.7051L83.8064 78.7063Z" fill="url(https://to-do.live.com/tasks/myday#paint3_linear_1406_121345)"></path><path d="M78.7254 76.5283C81.0955 79.2293 85.2065 79.4975 87.9074 77.1273C90.6084 74.7571 90.8766 70.6462 88.5064 67.9452C86.1362 65.2442 82.0253 64.9761 79.3243 67.3463C76.6234 69.7164 76.3552 73.8274 78.7254 76.5283Z" fill="#72ACF1"></path><path d="M79.1859 76.1246C81.3328 78.5711 85.0564 78.814 87.5029 76.6671C89.9494 74.5203 90.1923 70.7966 88.0454 68.3502C85.8986 65.9037 82.1749 65.6608 79.7285 67.8076C77.282 69.9545 77.0391 73.6781 79.1859 76.1246Z" fill="white"></path><path d="M86.5437 71.6879L83.0959 69.3009C83.0486 69.2682 83.0433 69.1987 83.076 69.1515L83.4252 68.6412C83.4579 68.5939 83.5274 68.5886 83.5746 68.6213L87.0224 71.0083C87.0697 71.041 87.075 71.1105 87.0423 71.1577L86.6931 71.6681C86.6604 71.7153 86.5909 71.7206 86.5437 71.6879Z" fill="#2B88D8"></path><path d="M86.182 74.0637L81.0063 70.468C80.9499 70.4249 80.9353 70.3449 80.9693 70.2781L81.2963 69.8057C81.3395 69.7493 81.4194 69.7348 81.4863 69.7688L86.6516 73.3736C86.708 73.4168 86.7225 73.4967 86.6885 73.5636L86.3615 74.0359C86.3184 74.0923 86.2384 74.1068 86.182 74.0637Z" fill="#E1DFDD"></path><path d="M85.7307 75.5149L79.8085 71.4066C79.752 71.3634 79.7283 71.273 79.7715 71.2166L80.088 70.7535C80.1312 70.6971 80.2216 70.6733 80.278 70.7165L86.2002 74.8248C86.2567 74.868 86.2804 74.9584 86.2372 75.0148L85.9207 75.478C85.867 75.5436 85.7871 75.5581 85.7307 75.5149Z" fill="#E1DFDD"></path><path d="M83.6575 75.8537L80.2096 73.4667C80.1624 73.434 80.1571 73.3645 80.1898 73.3173L80.539 72.8069C80.5717 72.7597 80.6411 72.7543 80.6884 72.787L84.1362 75.1741C84.1834 75.2068 84.1888 75.2762 84.1561 75.3235L83.8069 75.8338C83.7846 75.8719 83.7047 75.8864 83.6575 75.8537Z" fill="#E1DFDD"></path><path d="M67.1977 63.2231L43.3634 68.8271C43.1476 68.8738 42.9221 68.8397 42.7299 68.7313C42.5377 68.6228 42.3924 68.4476 42.3216 68.2391L33.3018 40.0729C33.2703 39.9798 33.259 39.8813 33.2683 39.7836C33.2777 39.6858 33.3076 39.5912 33.3561 39.5058C33.4046 39.4204 33.4706 39.3461 33.5498 39.2878C33.6291 39.2295 33.7197 39.1885 33.8159 39.1675L57.6526 33.5629C57.8677 33.5162 58.0925 33.5501 58.284 33.6582C58.4756 33.7663 58.6204 33.941 58.6909 34.1488L67.7126 62.3174C67.7441 62.4105 67.7555 62.5092 67.7461 62.607C67.7367 62.7047 67.7067 62.7995 67.6581 62.8849C67.6095 62.9704 67.5434 63.0447 67.4641 63.1029C67.3847 63.1612 67.2939 63.2021 67.1977 63.2231Z" fill="#797673"></path><path d="M64.8337 61.6223L44.3987 66.4271L36.1821 40.7701L56.617 35.9653L64.8337 61.6223Z" fill="#E1DFDD"></path><path d="M50.4383 37.2648L42.2689 39.1855L40.7351 34.396C40.7084 34.3168 40.6988 34.2329 40.7069 34.1498C40.7149 34.0666 40.7404 33.9861 40.7817 33.9134C40.823 33.8407 40.8791 33.7775 40.9465 33.7279C41.0139 33.6782 41.0911 33.6433 41.1729 33.6253L48.0096 32.0177C48.1988 31.9767 48.3966 32.0065 48.5651 32.1016C48.7336 32.1967 48.861 32.3503 48.9231 32.5331L50.4383 37.2648Z" fill="#2A88E5"></path><path d="M52.475 40.0275L42.2181 42.4391C42.0198 42.4821 41.8126 42.4508 41.636 42.3512C41.4594 42.2515 41.3258 42.0905 41.2607 41.899L39.9253 37.7287L51.5874 34.9875L52.9395 39.2092C52.9678 39.2932 52.978 39.3823 52.9696 39.4706C52.9611 39.5588 52.934 39.6443 52.8902 39.7215C52.8464 39.7987 52.7868 39.8658 52.7152 39.9185C52.6437 39.9712 52.5618 40.0084 52.475 40.0275V40.0275Z" fill="#77B3EE"></path><path d="M69.1649 57.1417C66.2852 57.3399 63.5112 58.3021 61.1303 59.9287C52.8748 65.7053 46.3821 64.543 44.1378 61.3633C40.8539 56.7085 36.1841 40.768 36.1841 40.768L56.616 35.9653C56.616 35.9653 59.0987 45.6359 62.5331 49.9666C65.9047 54.2189 67.2918 54.1009 69.1649 57.1417Z" fill="white"></path><path d="M51.9695 63.8929C47.8322 64.6791 45.1501 63.5221 43.9629 61.0906C44.789 61.9137 46.2207 62.6247 48.552 61.7852C48.552 61.7852 50.4442 63.8978 51.9695 63.8929Z" fill="#C8C6C4"></path><path fill-rule="evenodd" clip-rule="evenodd" d="M56.3695 41.5477C56.4028 41.6861 56.3175 41.8252 56.1791 41.8585L45.7565 44.3632C45.6181 44.3964 45.4789 44.3112 45.4457 44.1728C45.4124 44.0344 45.4976 43.8952 45.6361 43.862L56.0587 41.3573C56.1971 41.324 56.3362 41.4093 56.3695 41.5477Z" fill="#535150"></path><circle cx="41.8304" cy="45.1432" r="2.31968" fill="#87B8F7"></circle><path fill-rule="evenodd" clip-rule="evenodd" d="M42.9259 44.0005C42.9879 44.0354 43.0099 44.1139 42.975 44.176L41.8152 46.2379C41.7829 46.2953 41.7126 46.3191 41.6521 46.2932L40.75 45.9066C40.6846 45.8785 40.6543 45.8028 40.6823 45.7373C40.7104 45.6719 40.7861 45.6416 40.8515 45.6697L41.6473 46.0107L42.7504 44.0496C42.7853 43.9876 42.8639 43.9656 42.9259 44.0005Z" fill="white"></path><path fill-rule="evenodd" clip-rule="evenodd" d="M58.43 47.6607C58.4633 47.7991 58.3781 47.9383 58.2397 47.9715L47.817 50.4762C47.6786 50.5095 47.5395 50.4242 47.5062 50.2858C47.473 50.1474 47.5582 50.0083 47.6966 49.975L58.1192 47.4703C58.2576 47.4371 58.3968 47.5223 58.43 47.6607Z" fill="#535150"></path><circle cx="43.8905" cy="51.2565" r="2.31968" fill="#87B8F7"></circle><path fill-rule="evenodd" clip-rule="evenodd" d="M44.9855 50.1137C45.0475 50.1486 45.0695 50.2272 45.0346 50.2892L43.8748 52.3512C43.8425 52.4086 43.7722 52.4324 43.7117 52.4065L42.8096 52.0198C42.7442 51.9918 42.7139 51.916 42.7419 51.8506C42.7699 51.7852 42.8457 51.7549 42.9111 51.7829L43.7069 52.124L44.81 50.1629C44.8449 50.1008 44.9234 50.0788 44.9855 50.1137Z" fill="white"></path><path d="M33.9647 45.5636L35.4448 42.9163L33.133 41.638C33.0397 41.5866 32.9297 41.5741 32.8272 41.6032C32.7247 41.6324 32.638 41.7008 32.5862 41.7935L31.4968 43.7419C31.4712 43.7877 31.4548 43.8382 31.4487 43.8903C31.4427 43.9425 31.447 43.9953 31.4615 44.0458C31.476 44.0963 31.5003 44.1435 31.5332 44.1846C31.566 44.2257 31.6066 44.2601 31.6528 44.2856L33.9647 45.5636Z" fill="#F5B4D1"></path><path d="M35.8746 43.1546L34.3945 45.8022L54.3351 56.8272L55.8152 54.1796L35.8746 43.1546Z" fill="#FFC933"></path><path d="M55.7564 54.1615L54.2729 56.807L57.053 56.9616C57.1163 56.9652 57.1792 56.951 57.2348 56.9207C57.2903 56.8904 57.3362 56.8452 57.3671 56.7902C57.398 56.7353 57.4128 56.6728 57.4097 56.6099C57.4066 56.547 57.3858 56.4862 57.3496 56.4344L55.7564 54.1615Z" fill="#E0C4B4"></path><path d="M34.3229 42.2955L32.8428 44.9431L35.0872 46.184L36.5672 43.5364L34.3229 42.2955Z" fill="#B3ECFF"></path><defs><radialGradient id="paint0_radial_1406_121345" cx="0" cy="0" r="1" gradientUnits="userSpaceOnUse" gradientTransform="translate(70.9671 24.447) rotate(35.9413) scale(11.626)"><stop offset="0.00043554"></stop><stop offset="1" stop-opacity="0"></stop></radialGradient><linearGradient id="paint1_linear_1406_121345" x1="89.4541" y1="72.8993" x2="90.4403" y2="73.5838" gradientUnits="userSpaceOnUse"><stop offset="0.000942211" stop-color="#3E8EED"></stop><stop offset="1" stop-color="#72ACF1"></stop></linearGradient><linearGradient id="paint2_linear_1406_121345" x1="86.3906" y1="68.2327" x2="88.0081" y2="65.9022" gradientUnits="userSpaceOnUse"><stop offset="0.000942211" stop-color="#3E8EED"></stop><stop offset="1" stop-color="#72ACF1"></stop></linearGradient><linearGradient id="paint3_linear_1406_121345" x1="80.8552" y1="76.1975" x2="79.2377" y2="78.528" gradientUnits="userSpaceOnUse"><stop offset="0.000942211" stop-color="#3E8EED"></stop><stop offset="1" stop-color="#72ACF1"></stop></linearGradient></defs></svg>