<?xml version="1.0" encoding="utf-8"?>
<!-- Generator: Adobe Illustrator 24.3.0, SVG Export Plug-In . SVG Version: 6.00 Build 0)  -->
<svg version="1.1" id="Layer_1" xmlns="http://www.w3.org/2000/svg" xmlns:xlink="http://www.w3.org/1999/xlink" x="0px" y="0px"
	 viewBox="0 0 512 512" style="enable-background:new 0 0 512 512;" xml:space="preserve" fill='white'>
<g>
	<path d="M256,0C167.75,0,96,71.78,96,160h64c0-52.91,43.06-96,96-96c52.91,0,96,43.09,96,96c0,34.22-14.53,46.88-47.41,72.16
		c-12.22,9.41-26.03,20.03-39.22,33.22c-42,41.97-41.56,83.34-41.38,86.62v64h64v-64.28c0-0.78,0.72-19.22,22.59-41.09
		c10.25-10.22,21.84-19.12,33-27.75C377.53,256.78,416,227.22,416,160C416,71.78,344.22,0,256,0z M224,448h64v64h-64V448z"/>
</g>
</svg>
