<svg width="20" height="20" viewBox="0 0 20 20" fill="none" xmlns="http://www.w3.org/2000/svg" focusable="false"><path d="M14.5 3C15.8807 3 17 4.11929 17 5.5V9.59971C16.6832 9.43777 16.3486 9.30564 16 9.20703V5.5C16 4.67157 15.3284 4 14.5 4H5.5C4.67157 4 4 4.67157 4 5.5V14.5C4 15.3284 4.67157 16 5.5 16H9.20703C9.30564 16.3486 9.43777 16.6832 9.59971 17H5.5C4.11929 17 3 15.8807 3 14.5V5.5C3 4.11929 4.11929 3 5.5 3H14.5Z" fill="#212121"></path><path d="M6.5 6C6.74546 6 6.94961 6.17688 6.99194 6.41012L7 6.5V13.5C7 13.7761 6.77614 14 6.5 14C6.25454 14 6.05039 13.8231 6.00806 13.5899L6 13.5V6.5C6 6.22386 6.22386 6 6.5 6Z" fill="#212121"></path><path fill-rule="evenodd" clip-rule="evenodd" d="M14.5 19C12.0147 19 10 16.9853 10 14.5C10 12.0147 12.0147 10 14.5 10C16.9853 10 19 12.0147 19 14.5C19 16.9853 16.9853 19 14.5 19ZM12.1468 14.146L14.1464 12.1464C14.3417 11.9512 14.6583 11.9512 14.8536 12.1464C15.0488 12.3417 15.0488 12.6583 14.8536 12.8536L13.7071 14H16.5C16.7761 14 17 14.2239 17 14.5C17 14.7761 16.7761 15 16.5 15H13.7071L14.8536 16.1464C15.0488 16.3417 15.0488 16.6583 14.8536 16.8536C14.6583 17.0488 14.3417 17.0488 14.1464 16.8536L12.1464 14.8536C12.0985 14.8056 12.0623 14.7504 12.0379 14.6914C12.0139 14.6333 12.0004 14.5697 12 14.503L12 14.5L12 14.497C12.0004 14.4303 12.0139 14.3667 12.0379 14.3086C12.062 14.2505 12.0974 14.196 12.1443 14.1486L12.1468 14.146Z" fill="#212121"></path></svg>